<?xml version="1.0" standalone="no"?>
<!DOCTYPE svg PUBLIC "-//W3C//DTD SVG 20010904//EN"
 "http://www.w3.org/TR/2001/REC-SVG-20010904/DTD/svg10.dtd">
<svg version="1.0" xmlns="http://www.w3.org/2000/svg"
 width="500.000000pt" height="500.000000pt" viewBox="0 0 500.000000 500.000000"
 preserveAspectRatio="xMidYMid meet">

<g transform="translate(0.000000,500.000000) scale(0.100000,-0.100000)"
fill="#000000" stroke="none">
<path d="M3185 4165 c-122 -15 -175 -28 -260 -60 -101 -38 -195 -90 -254 -142
l-53 -46 -86 16 c-182 35 -315 32 -462 -10 -250 -71 -451 -266 -567 -550 l-22
-53 -89 0 c-188 0 -263 -31 -400 -163 -53 -52 -113 -102 -132 -112 -76 -39
-192 -16 -301 60 -73 51 -202 175 -267 258 -43 55 -64 68 -77 47 -14 -22 -36
-236 -41 -405 -24 -671 194 -1108 626 -1255 36 -13 110 -30 165 -39 l100 -17
14 -45 c72 -233 180 -379 340 -462 125 -65 158 -72 346 -72 188 1 252 13 429
81 l88 34 81 -76 c309 -291 659 -350 1012 -171 103 52 202 125 291 215 l79 79
205 6 c174 5 220 9 302 30 345 90 557 316 653 697 109 435 2 909 -269 1188
-111 115 -205 172 -356 216 l-74 22 -26 65 c-55 143 -139 277 -241 384 -95
100 -175 159 -284 210 -153 73 -292 93 -470 70z m313 -65 c113 -31 222 -91
331 -179 107 -88 259 -311 311 -458 13 -35 28 -67 34 -71 6 -5 42 -16 79 -25
250 -60 462 -274 567 -572 68 -193 92 -407 66 -600 -53 -406 -237 -679 -535
-794 -125 -48 -224 -63 -440 -67 l-193 -3 -60 -66 c-73 -80 -208 -182 -308
-235 -230 -119 -482 -124 -703 -14 -100 50 -158 93 -259 193 l-88 85 -32 -13
c-97 -39 -227 -83 -291 -98 -92 -23 -328 -25 -402 -4 -219 62 -388 248 -445
491 -7 30 -17 60 -22 67 -5 6 -44 15 -86 18 -246 23 -466 150 -601 348 -151
221 -219 572 -192 986 7 102 15 196 17 207 5 18 22 5 122 -96 131 -131 218
-189 322 -216 130 -33 197 -7 345 136 135 129 168 143 355 146 l134 2 17 49
c97 286 318 500 582 563 113 27 291 27 405 0 46 -11 90 -20 99 -20 8 0 43 25
76 56 76 69 207 134 337 168 126 33 127 33 265 35 93 1 137 -4 193 -19z"/>
<path d="M3151 3870 c-203 -43 -352 -152 -422 -310 -32 -72 -49 -158 -49 -257
0 -165 56 -277 166 -333 42 -21 62 -25 139 -25 80 1 96 4 143 29 58 32 107 96
118 153 11 58 -2 168 -26 226 -27 65 -23 92 21 142 100 114 251 1 266 -199 12
-159 -47 -329 -151 -431 -121 -119 -294 -179 -445 -155 -148 24 -252 79 -352
187 -138 151 -182 358 -114 539 41 109 29 211 -30 250 -82 53 -315 -16 -433
-129 -63 -60 -155 -182 -184 -244 -26 -55 -28 -66 -19 -100 24 -86 7 -171 -43
-210 -14 -12 -48 -24 -75 -28 -42 -6 -66 -1 -156 30 -182 63 -245 42 -425
-140 -63 -64 -132 -125 -153 -136 -23 -12 -68 -22 -116 -26 -96 -7 -174 15
-292 84 -47 27 -83 42 -89 37 -5 -5 -2 -52 6 -109 63 -431 235 -658 558 -735
105 -25 103 -26 111 13 40 199 153 357 312 434 72 34 87 38 181 41 89 4 113 1
185 -21 168 -53 282 -155 321 -287 42 -143 -7 -260 -109 -260 -78 0 -124 55
-103 125 17 54 -11 134 -63 179 -80 68 -234 84 -335 36 -55 -27 -130 -108
-159 -173 -68 -150 -51 -360 40 -493 98 -142 259 -208 510 -209 162 0 245 22
325 88 92 74 114 87 147 87 42 0 98 -48 114 -98 31 -97 99 -183 192 -243 251
-162 641 -85 823 162 l36 50 -74 72 c-122 118 -172 232 -172 392 0 104 15 175
56 263 120 256 452 359 656 204 69 -53 84 -141 33 -193 -39 -39 -93 -40 -147
-2 -56 39 -163 45 -229 13 -98 -47 -149 -155 -143 -303 3 -80 7 -101 36 -159
34 -69 84 -118 157 -155 139 -71 385 -54 575 39 69 34 102 59 176 133 76 76
97 105 137 185 25 52 59 140 74 195 23 87 27 119 27 250 1 175 -11 232 -78
370 -108 226 -310 383 -532 414 -58 9 -73 15 -103 46 -39 38 -39 43 -29 211 3
43 -3 63 -39 135 -84 168 -191 266 -351 322 -77 27 -102 31 -222 33 -74 2
-155 -1 -179 -6z"/>
</g>
</svg>
